<?xml version="1.0" encoding="UTF-8"?>
<svg id="_图层_1" data-name="图层 1" xmlns="http://www.w3.org/2000/svg" viewBox="0 0 2800 600">
  <path d="M27.82,455.96V114.66h63.45v341.3H27.82ZM87.91,455.96v-60.81h26.68c31.25,0,54.68-8.93,70.3-26.8,15.62-17.87,23.43-43.94,23.43-78.24,0-37.81-7.81-66.42-23.43-85.81-15.62-19.39-39.06-29.08-70.3-29.08h-25.72l-5.77-60.57h31.49c106.88,0,160.32,58.49,160.32,175.46,0,110.56-53.44,165.84-160.32,165.84h-26.68Z"/>
  <path d="M416.57,460.77c-44.07,0-78.11-11.42-102.15-34.25-24.04-22.83-36.05-55.64-36.05-98.42s10.22-74.03,30.65-97.1c20.43-23.07,49.23-34.61,86.41-34.61s64.49,10.66,84.36,31.97c19.87,21.31,29.8,52.32,29.8,93.02,0,11.54-.48,22.51-1.44,32.93h-187v-45.19h124.5c0-17.14-4.37-30.28-13.1-39.42-8.74-9.13-20.95-13.7-36.65-13.7-16.99,0-30.16,6.05-39.54,18.15-9.37,12.1-14.06,29.29-14.06,51.56,0,24.04,6.93,42.3,20.79,54.8,13.86,12.5,33.61,18.75,59.25,18.75,11.54,0,22.91-.6,34.13-1.8,11.21-1.2,22.67-2.84,34.37-4.93l6.25,61.53c-16.34,2.88-31.25,4.72-44.71,5.53-13.46.8-25.4,1.2-35.81,1.2Z"/>
  <path d="M625.77,460.77c-19.39,0-36.58-.6-51.56-1.8-14.98-1.2-28.16-3-39.54-5.41l7.69-62.25c20.19,2.57,37.17,4.49,50.96,5.77,13.78,1.28,24.6,1.92,32.45,1.92,20.99,0,36.17-1.48,45.55-4.45,9.37-2.96,14.06-7.73,14.06-14.3,0-3.85-1.2-6.89-3.61-9.13-2.4-2.24-6.25-4.17-11.54-5.77l-80.52-24.04c-16.99-5.13-29.77-12.74-38.34-22.83-8.57-10.09-12.86-23.71-12.86-40.86,0-27.4,11.54-47.79,34.61-61.17,23.07-13.38,58.08-20.07,105.04-20.07,10.89,0,22.23.4,34.01,1.2,11.78.8,24.23,2.01,37.38,3.61l-6.97,60.33c-14.58-1.28-27.32-2.16-38.22-2.64-10.9-.48-20.11-.72-27.64-.72-24.2,0-41.78,1.4-52.76,4.21-10.98,2.81-16.46,7.41-16.46,13.82,0,4.01,1.16,7.09,3.48,9.25,2.32,2.16,5.97,3.97,10.94,5.41l68.98,19.71c21.95,6.25,38.34,14.94,49.15,26.08,10.82,11.14,16.22,25.76,16.22,43.86,0,27.08-10.74,47.23-32.21,60.45-21.47,13.22-54.24,19.83-98.31,19.83Z"/>
  <path d="M787.14,455.96v-60.09h99.03v60.09h-99.03ZM801.57,261.27v-60.09h144.69v60.09h-144.69ZM910.93,166.81c-12.34,0-22.35-3.85-30.04-11.54s-11.54-17.7-11.54-30.04,3.85-22.35,11.54-30.04c7.69-7.69,17.7-11.54,30.04-11.54s22.35,3.85,30.04,11.54c7.69,7.69,11.54,17.71,11.54,30.04s-3.85,22.35-11.54,30.04-17.71,11.54-30.04,11.54ZM881.36,455.96v-240.35h64.9v240.35h-64.9ZM941.45,455.96v-60.09h80.28v60.09h-80.28Z"/>
  <path d="M1123.26,460.77c-31.57,0-56.12-11.38-73.67-34.13-17.55-22.75-26.32-55.36-26.32-97.82s8.77-74.75,26.32-97.82c17.55-23.07,42.26-34.61,74.15-34.61,19.39,0,34.09,4.21,44.1,12.62,10.01,8.41,16.54,21.19,19.59,38.34h18.75l-14.9,81.48c0-24.67-4.13-42.7-12.38-54.08-8.25-11.38-20.71-17.07-37.38-17.07s-28.12,6.21-36.77,18.63c-8.65,12.42-12.98,29.92-12.98,52.52s4.21,41.02,12.62,52.88c8.41,11.86,20.79,17.79,37.13,17.79,18.59,0,31.52-5.61,38.82-16.82,7.29-11.21,10.94-29.16,10.94-53.84l17.31,81h-22.59c-2.57,16.99-9.22,29.73-19.95,38.22-10.74,8.49-25,12.74-42.78,12.74ZM1048.02,570.85l-2.4-56.72,81.72-2.4c22.43-.64,38.7-6.85,48.79-18.63,10.09-11.78,15.14-29.12,15.14-52.04v-186.03l4.81-53.84h60.33v232.18c0,45.34-10.66,78.79-31.97,100.35-21.31,21.55-55.28,33.13-101.91,34.73l-74.51,2.4Z"/>
  <path d="M1292.08,455.96v-254.78h58.17l6.97,53.84v200.94h-65.14ZM1442.78,455.96v-149.74c0-15.38-3.17-27.24-9.49-35.57-6.33-8.33-15.35-12.5-27.04-12.5-32.69,0-49.03,23.55-49.03,70.66l-14.9-81.48h21.15c2.4-17.14,8.25-29.92,17.55-38.34,9.29-8.41,23.39-12.62,42.3-12.62,26.92,0,47.75,8.17,62.49,24.52,14.74,16.34,22.11,39.42,22.11,69.22v165.84h-65.14Z"/>
  <path d="M1545.75,455.96V114.66h48.07v341.3h-48.07ZM1588.05,350.2v-45.67h58.17c26.28,0,46.15-6.53,59.61-19.59,13.46-13.06,20.19-32.17,20.19-57.32,0-22.11-6.73-38.85-20.19-50.23-13.46-11.38-33.33-17.06-59.61-17.06h-57.2v-45.67h57.2c42.78,0,75.19,9.54,97.22,28.6,22.03,19.07,33.05,47.19,33.05,84.36,0,40.22-11.02,70.71-33.05,91.45-22.03,20.75-54.44,31.13-97.22,31.13h-58.17Z"/>
  <path d="M1799.18,455.96V95.43h50.96v360.53h-50.96ZM1955.89,455.96v-165.84c0-16.18-4.01-28.64-12.02-37.38-8.01-8.73-19.23-13.1-33.65-13.1-40.06,0-60.09,24.36-60.09,73.07l-14.9-65.38h19.71c1.44-17.14,7.69-29.92,18.75-38.34,11.06-8.41,27.24-12.62,48.55-12.62,26.92,0,47.75,8.17,62.49,24.52,14.74,16.34,22.11,39.42,22.11,69.22v165.84h-50.96Z"/>
  <path d="M2154.52,460.77c-35.25,0-62.65-11.54-82.2-34.61-19.55-23.07-29.32-55.6-29.32-97.58s9.77-74.71,29.32-97.7c19.55-22.99,46.95-34.49,82.2-34.49s62.85,11.5,82.32,34.49c19.47,23,29.2,55.56,29.2,97.7s-9.73,74.51-29.2,97.58-46.91,34.61-82.32,34.61ZM2154.52,415.1c18.75,0,33.21-7.53,43.38-22.59,10.17-15.06,15.26-36.37,15.26-63.93s-5.09-49.07-15.26-64.05c-10.18-14.98-24.64-22.47-43.38-22.47s-33.21,7.49-43.38,22.47c-10.18,14.98-15.26,36.33-15.26,64.05s5.08,48.87,15.26,63.93c10.17,15.06,24.64,22.59,43.38,22.59Z"/>
  <path d="M2302.19,455.96v-254.78h46.15l4.81,53.84v200.94h-50.96ZM2458.91,455.96v-165.84c0-15.38-4.01-27.24-12.02-35.57-8.01-8.33-19.23-12.5-33.65-12.5-40.06,0-60.09,23.55-60.09,70.66l-14.9-65.38h19.71c1.44-17.14,7.69-29.92,18.75-38.34,11.06-8.41,27.24-12.62,48.55-12.62,26.92,0,47.75,8.17,62.49,24.52,14.74,16.34,22.11,39.42,22.11,69.22v165.84h-50.96Z"/>
  <path d="M2682.05,460.77c-43.42,0-76.95-11.42-100.59-34.25-23.64-22.83-35.45-55.64-35.45-98.42s10.01-74.03,30.04-97.1c20.03-23.07,48.31-34.61,84.84-34.61,34.45,0,61.09,10.42,79.92,31.25,18.83,20.83,28.24,51.12,28.24,90.85,0,11.7-.48,22.59-1.44,32.69h-178.82v-38.94h134.12c0-22.91-5.45-40.5-16.34-52.76-10.9-12.26-25.96-18.39-45.19-18.39-21.63,0-38.42,7.37-50.35,22.11-11.94,14.74-17.91,35.57-17.91,62.49,0,29.49,8.21,51.92,24.64,67.3,16.42,15.38,39.78,23.07,70.06,23.07,10.58,0,20.99-.6,31.25-1.8,10.25-1.2,20.67-2.84,31.25-4.93l6.25,44.71c-15.06,2.88-28.84,4.72-41.34,5.53-12.5.8-23.55,1.2-33.17,1.2Z"/>
</svg>