<?xml version="1.0" encoding="UTF-8"?>
<svg id="_图层_1" data-name="图层 1" xmlns="http://www.w3.org/2000/svg" viewBox="0 0 2800 600">
  <path d="M36.09,493.92V161.05h61.89v332.87h-61.89ZM36.09,218.01v-56.96h228.32v56.96H36.09ZM36.09,369.91v-57.43h182.14v57.43H36.09Z"/>
  <path d="M418.89,498.61c-73.92,0-110.88-37.19-110.88-111.58v-225.98h61.89v225.98c0,17.35,4.02,30.4,12.07,39.15,8.05,8.75,20.67,13.13,37.86,13.13,33.29,0,49.93-17.42,49.93-52.28v-225.98h61.89v225.98c0,37.2-9.57,65.09-28.72,83.69-19.15,18.6-47.16,27.9-84.04,27.9Z"/>
  <path d="M695.04,498.61c-37.82,0-67.01-10.35-87.55-31.06-20.55-20.71-30.83-49.73-30.83-87.09h64.46c0,18.75,4.81,33.33,14.42,43.72,9.61,10.4,23.17,15.59,40.67,15.59s31.29-5.16,40.91-15.47c9.61-10.31,14.42-24.92,14.42-43.84v-219.41h61.89v219.41c0,37.51-10.43,66.57-31.29,87.2s-49.89,30.94-87.09,30.94ZM675.34,218.01v-56.96h109.24v56.96h-109.24Z"/>
  <path d="M877.18,216.6v-55.56h210.51v55.56h-210.51ZM877.18,493.92v-55.79h210.51v55.79h-210.51ZM951.25,493.92V161.05h61.89v332.87h-61.89Z"/>
  <path d="M1437.9,493.92V161.05h61.89v332.87h-61.89ZM1494.16,398.51v-56.96h45.71c20.47,0,36.29-5.63,47.47-16.88,11.17-11.25,16.76-26.96,16.76-47.12,0-19.06-5.59-33.76-16.76-44.07-11.17-10.31-27-15.47-47.47-15.47h-44.77v-56.96h44.77c41.73,0,74,9.81,96.81,29.42,22.82,19.61,34.23,47.32,34.23,83.1,0,39.7-11.41,70.44-34.23,92.24-22.82,21.8-55.09,32.7-96.81,32.7h-45.71Z"/>
  <path d="M1721.08,493.92V142.29h63.53v351.63h-63.53ZM1868.06,493.92v-150.03c0-13.91-3.09-24.61-9.26-32.12-6.18-7.5-14.97-11.25-26.37-11.25-31.88,0-47.82,21.8-47.82,65.4l-14.53-75.48h20.63c2.34-16.72,8.05-29.19,17.11-37.39,9.06-8.2,22.82-12.31,41.26-12.31,26.25,0,46.57,7.97,60.95,23.91,14.38,15.94,21.57,38.44,21.57,67.51v161.75h-63.53Z"/>
  <path d="M2107.63,498.61c-35.79,0-63.53-11.25-83.22-33.76-19.69-22.5-29.54-54.23-29.54-95.17s9.85-72.86,29.54-95.29c19.69-22.42,47.43-33.64,83.22-33.64s63.53,11.22,83.22,33.64c19.69,22.43,29.54,54.19,29.54,95.29s-9.84,72.67-29.54,95.17-47.43,33.76-83.22,33.76ZM2107.87,438.36c14.38,0,25.51-5.98,33.4-17.93,7.89-11.96,11.84-28.87,11.84-50.75s-3.95-38.99-11.84-50.87c-7.89-11.88-19.11-17.82-33.64-17.82s-25.55,5.94-33.52,17.82c-7.97,11.88-11.96,28.83-11.96,50.87s3.99,38.8,11.96,50.75c7.97,11.96,19.22,17.93,33.76,17.93Z"/>
  <path d="M2283.68,493.92v-248.48h56.73l6.8,52.51v195.97h-63.53ZM2430.66,493.92v-146.04c0-15-3.09-26.57-9.26-34.69-6.18-8.12-14.97-12.19-26.37-12.19-31.88,0-47.82,22.97-47.82,68.92l-14.53-79.47h20.63c2.34-16.72,8.05-29.19,17.11-37.39,9.06-8.2,22.82-12.31,41.26-12.31,26.25,0,46.57,7.97,60.95,23.91,14.38,15.94,21.57,38.44,21.57,67.51v161.75h-63.53Z"/>
  <path d="M2692.27,498.61c-42.98,0-76.19-11.13-99.63-33.4-23.44-22.27-35.16-54.27-35.16-95.99s9.96-72.2,29.89-94.7c19.92-22.5,48.01-33.76,84.27-33.76s62.9,10.4,82.28,31.18c19.38,20.79,29.07,51.03,29.07,90.72,0,11.25-.47,21.96-1.41,32.12h-182.38v-44.07h121.43c0-16.72-4.26-29.54-12.78-38.44-8.52-8.91-20.43-13.36-35.75-13.36-16.57,0-29.42,5.9-38.56,17.7-9.14,11.8-13.71,28.56-13.71,50.28,0,23.44,6.76,41.26,20.28,53.45,13.52,12.19,32.78,18.28,57.78,18.28,11.25,0,22.35-.59,33.29-1.76,10.94-1.17,22.11-2.77,33.52-4.81l6.09,60.01c-15.94,2.81-30.47,4.61-43.6,5.39-13.13.78-24.77,1.17-34.93,1.17Z"/>
</svg>