<?xml version="1.0" encoding="UTF-8"?>
<svg id="_图层_1" data-name="图层 1" xmlns="http://www.w3.org/2000/svg" viewBox="0 0 2000 800">
  <path d="M248.51,373.87l136.34-152.33h91.86v410.83h-105.67v-256.44l-114.6,128.81h-15.87l-114.58-128.81v256.44H20.31V221.54h91.75l136.45,152.33Z"/>
  <path d="M795.54,216.25c72.27,0,130.77,21.13,175.51,63.37,44.74,42.25,67.11,91.41,67.11,147.48s-22.68,106.16-68.02,147.92c-45.35,41.76-103.54,62.64-174.6,62.64s-130.37-20.78-175.51-62.34c-45.15-41.56-67.71-90.97-67.71-148.22s22.42-105.47,67.26-147.63c44.84-42.15,103.49-63.23,175.97-63.23ZM795.54,552.38c40.08,0,72.37-11.52,96.87-34.55,24.49-23.03,36.74-53.27,36.74-90.72s-12.25-67.93-36.74-90.87c-24.5-22.94-56.79-34.41-96.87-34.41s-72.73,11.47-97.32,34.41c-24.6,22.94-36.89,53.23-36.89,90.87s12.3,67.69,36.89,90.72c24.6,23.04,57.04,34.55,97.32,34.55Z"/>
  <path d="M1114.68,221.54h189.48c41.09,0,74.5,11.51,100.21,34.53,25.71,23.02,38.56,50.89,38.56,83.61,0,45.26-24.29,78.76-72.88,100.51,21.29,9.38,41.53,34.65,60.72,75.79,19.19,41.15,37.71,79.94,55.58,116.39h-115.96c-6.92-13.53-18.98-39.31-36.18-77.34-17.2-38.03-31.93-62.44-44.17-73.23-12.25-10.78-25.36-16.17-39.32-16.17h-30.37v166.74h-105.67V221.54ZM1220.35,296.83v93.52h55.87c17.81,0,31.93-4.07,42.36-12.2,10.42-8.13,15.64-19.75,15.64-34.85,0-30.97-20.15-46.46-60.43-46.46h-53.44Z"/>
  <path d="M1751.14,216.25c72.27,0,130.77,21.13,175.51,63.37,44.74,42.25,67.11,91.41,67.11,147.48s-22.67,106.16-68.02,147.92c-45.35,41.76-103.55,62.64-174.6,62.64s-130.37-20.78-175.51-62.34c-45.15-41.56-67.72-90.97-67.72-148.22s22.42-105.47,67.26-147.63c44.84-42.15,103.49-63.23,175.97-63.23ZM1751.14,552.38c40.08,0,72.37-11.52,96.87-34.55,24.49-23.03,36.74-53.27,36.74-90.72s-12.25-67.93-36.74-90.87c-24.5-22.94-56.78-34.41-96.87-34.41s-72.73,11.47-97.32,34.41c-24.6,22.94-36.89,53.23-36.89,90.87s12.3,67.69,36.89,90.72c24.6,23.04,57.04,34.55,97.32,34.55Z"/>
</svg>